#N canvas 587 464 1049 675 10;
#X text 77 30 voice trigger;
#X obj 276 371 bonk~;
#X msg 98 274 mask 4 0.7;
#X msg 198 301 attack-frames 1;
#X msg 323 287 debounce 0;
#X obj 221 147 lbang;
#X floatatom 313 162 5 0 0 0 - - -;
#X msg 266 241 minvel \$1;
#X msg 256 220 15;
#X msg 237 195 thresh 150 \$1;
#X msg 234 169 250;
#X obj 480 219 adc~;
#X obj 434 352 *~;
#X obj 338 437 spigot;
#X msg 405 439 0;
#X msg 372 412 1;
#X obj 318 350 lbang;
#X obj 370 386 del 300;
#X obj 331 529 outlet;
#X obj 379 87 inlet;
#X obj 484 375 env~;
#X obj 486 409 - 100;
#X obj 440 486 outlet;
#X obj 332 479 t a b;
#X obj 373 112 route enable channel debounce;
#X obj 375 176 select 1;
#X obj 377 221 line~;
#X obj 276 526 bng 15 250 50 0 empty empty empty 17 7 0 10 -262144
-1 -1;
#X msg 409 200 0 20;
#X msg 350 198 1 500;
#X obj 605 168 inlet~;
#X obj 555 182 env~;
#X obj 526 211 > 0;
#X obj 541 232 select 1;
#X obj 476 264 *~ 1;
#X msg 513 258 0;
#X msg 562 261 1;
#X obj 601 264 *~ 0;
#X obj 493 308 +~;
#X text 657 217 default to adc turn off if other input detected;
#X obj 562 308 tgl 15 0 empty empty empty 17 7 0 10 -262144 -1 -1 1
1;
#X connect 1 1 13 0;
#X connect 2 0 1 0;
#X connect 3 0 1 0;
#X connect 4 0 1 0;
#X connect 5 0 2 0;
#X connect 5 0 3 0;
#X connect 5 0 10 0;
#X connect 5 0 8 0;
#X connect 6 0 9 0;
#X connect 7 0 1 0;
#X connect 8 0 7 0;
#X connect 9 0 1 0;
#X connect 10 0 9 0;
#X connect 11 0 34 0;
#X connect 12 0 1 0;
#X connect 12 0 20 0;
#X connect 13 0 23 0;
#X connect 14 0 13 1;
#X connect 15 0 13 1;
#X connect 16 0 15 0;
#X connect 17 0 15 0;
#X connect 19 0 24 0;
#X connect 20 0 21 0;
#X connect 21 0 22 0;
#X connect 23 0 18 0;
#X connect 23 0 27 0;
#X connect 23 1 14 0;
#X connect 23 1 17 0;
#X connect 24 0 25 0;
#X connect 24 1 11 0;
#X connect 24 2 17 1;
#X connect 24 3 1 0;
#X connect 25 0 29 0;
#X connect 25 1 28 0;
#X connect 26 0 12 1;
#X connect 28 0 26 0;
#X connect 29 0 26 0;
#X connect 30 0 31 0;
#X connect 30 0 37 0;
#X connect 31 0 32 0;
#X connect 32 0 33 0;
#X connect 33 0 35 0;
#X connect 33 0 36 0;
#X connect 34 0 38 0;
#X connect 35 0 34 1;
#X connect 36 0 37 1;
#X connect 36 0 40 0;
#X connect 37 0 38 1;
#X connect 38 0 12 0;
