#N canvas 304 525 933 670 10;
#X obj 176 36 inlet~;
#X obj 445 19 inlet;
#X obj 210 179 throw~ \$0-effect0;
#X obj 214 233 catch~ \$0-effect0;
#X obj 213 364 outlet~;
#X msg 297 152 set \$1-effect\$2;
#X obj 410 61 t b f;
#X obj 368 104 pack 0 0;
#X obj 369 81 f \$0;
#X obj 368 230 catch~ \$0-effect1;
#X obj 367 280 *~;
#X obj 486 255 osc~;
#X msg 493 219 50;
#X obj 493 191 lbang;
#X obj 480 78 route control1;
#X obj 609 331 clip~ -1 1;
#X obj 605 234 catch~ \$0-effect2;
#X obj 446 42 route float;
#X obj 607 271 *~ 0.04;
#X connect 0 0 2 0;
#X connect 1 0 17 0;
#X connect 3 0 4 0;
#X connect 5 0 2 0;
#X connect 6 0 8 0;
#X connect 6 1 7 1;
#X connect 7 0 5 0;
#X connect 8 0 7 0;
#X connect 9 0 10 0;
#X connect 10 0 4 0;
#X connect 11 0 10 1;
#X connect 12 0 11 0;
#X connect 13 0 12 0;
#X connect 14 0 11 0;
#X connect 14 0 18 1;
#X connect 15 0 4 0;
#X connect 16 0 18 0;
#X connect 17 0 6 0;
#X connect 17 1 14 0;
#X connect 18 0 15 0;
