#N canvas 411 23 2015 1279 10;
#X obj 271 322 tgl 15 0 empty empty empty 17 7 0 10 -262144 -1 -1 1
1;
#X msg 126 504 enable \$1;
#X floatatom 355 598 5 0 0 0 - - -;
#X msg 213 513 minvel 60;
#X obj 271 356 PitchMenu TopMenu;
#X obj 263 566 AudioTrigger;
#X obj 1567 517 i;
#X obj 1541 439 spigot;
#X msg 1620 417 0;
#X msg 1615 386 1;
#X obj 1615 362 lbang;
#X msg 764 323 enable \$1;
#X obj 1568 540 pow -1;
#X obj 1568 594 phasor~;
#X obj 1568 619 *~;
#X obj 1402 903 lop~ 14000;
#X obj 1572 649 s~ \$0-sampleindex;
#X msg 1670 421 0;
#X text 1702 407 reset;
#X obj 1254 783 tabwrite~ \$0-outsignal;
#N canvas 0 22 450 278 (subpatch) 0;
#X array \$0-outsignal 500 float 3;
#A 0 0 0 0 0 0 0 0 0 0 0 0 0 0 0 0 0 0 0 0 0 0 0 0 0 0 0 0 0 0 0 0
0 0 0 0 0 0 0 0 0 0 0 0 0 0 0 0 0 0 0 0 0 0 0 0 0 0 0 0 0 0 0 0 0 0
0 0 0 0 0 0 0 0 0 0 0 0 0 0 0 0 0 0 0 0 0 0 0 0 0 0 0 0 0 0 0 0 0 0
0 0 0 0 0 0 0 0 0 0 0 0 0 0 0 0 0 0 0 0 0 0 0 0 0 0 0 0 0 0 0 0 0 0
0 0 0 0 0 0 0 0 0 0 0 0 0 0 0 0 0 0 0 0 0 0 0 0 0 0 0 0 0 0 0 0 0 0
0 0 0 0 0 0 0 0 0 0 0 0 0 0 0 0 0 0 0 0 0 0 0 0 0 0 0 0 0 0 0 0 0 0
0 0 0 0 0 0 0 0 0 0 0 0 0 0 0 0 0 0 0 0 0 0 0 0 0 0 0 0 0 0 0 0 0 0
0 0 0 0 0 0 0 0 0 0 0 0 0 0 0 0 0 0 0 0 0 0 0 0 0 0 0 0 0 0 0 0 0 0
0 0 0 0 0 0 0 0 0 0 0 0 0 0 0 0 0 0 0 0 0 0 0 0 0 0 0 0 0 0 0 0 0 0
0 0 0 0 0 0 0 0 0 0 0 0 0 0 0 0 0 0 0 0 0 0 0 0 0 0 0 0 0 0 0 0 0 0
0 0 0 0 0 0 0 0 0 0 0 0 0 0 0 0 0 0 0 0 0 0 0 0 0 0 0 0 0 0 0 0 0 0
0 0 0 0 0 0 0 0 0 0 0 0 0 0 0 0 0 0 0 0 0 0 0 0 0 0 0 0 0 0 0 0 0 0
0 0 0 0 0 0 0 0 0 0 0 0 0 0 0 0 0 0 0 0 0 0 0 0 0 0 0 0 0 0 0 0 0 0
0 0 0 0 0 0 0 0 0 0 0 0 0 0 0 0 0 0 0 0 0 0 0 0 0 0 0 0 0 0 0 0 0 0
0 0 0 0 0 0 0 0 0 0 0 0 0 0 0 0 0 0 0 0 0 0 0 0 0 0 0;
#X coords 0 1 499 -1 200 140 1;
#X restore 1694 485 graph;
#X obj 1265 727 metro;
#X obj 1267 701 tgl 15 0 empty empty empty 17 7 0 10 -262144 -1 -1
0 1;
#X obj 1577 185 r \$0-loopstart;
#X obj 666 233 r \$0-selection;
#X msg 757 295 0;
#X msg 706 299 1;
#X obj 216 228 r \$0-selection;
#X obj 218 249 select 0;
#X msg 218 311 1;
#X msg 270 304 0;
#X obj 114 464 tgl 15 0 empty empty empty 17 7 0 10 -262144 -1 -1 0
1;
#X obj 57 407 r \$0-selection;
#X msg 62 444 1;
#X msg 135 443 0;
#X obj 149 252 lbang;
#X obj 266 273 t b;
#X obj 360 388 s \$0-selection;
#X obj 340 245 nbx 5 14 -1e+37 1e+37 0 0 empty empty empty 0 -8 0 10
-262144 -1 -1 0 256;
#X msg 118 660 0;
#X obj 114 697 s \$0-selection;
#X obj 222 474 lbang;
#X obj 1219 908 catch~ \$0-audionotif;
#X msg 285 513 thresh 150 700;
#X msg 401 261 minvel 60;
#X obj 410 222 lbang;
#X msg 473 261 thresh 150 700;
#X obj 1585 416 tgl 15 0 empty empty empty 17 7 0 10 -262144 -1 -1
1 1;
#X obj 1480 480 select 0;
#X obj 1518 504 t b f;
#X obj 1672 293 r \$0-loopreset;
#X obj 1675 317 t b;
#X obj 232 738 s \$0-loopreset;
#X obj 206 91 inlet~;
#X obj 339 104 inlet~;
#X text 342 81 trigger;
#X text 208 63 audio in;
#X obj 502 94 inlet;
#X obj 206 126 s~ \$0-audioin;
#X obj 339 136 s~ \$0-audiotrig;
#X obj 393 504 r~ \$0-audiotrig;
#X obj 124 310 r~ \$0-audiotrig;
#X obj 1459 807 route 1;
#X obj 1459 776 r \$0-effectcontrol;
#X obj 1610 759 r \$0-effectcontrol;
#X obj 1793 774 r \$0-effectcontrol;
#X obj 1612 790 route 2;
#X obj 1794 805 route 3;
#X msg 337 417 selection \$1;
#X obj 338 443 outlet;
#X obj 500 153 t b;
#X msg 500 177 0;
#X obj 500 202 s \$0-selection;
#X obj 534 177 s \$0-loopreset;
#X obj 573 344 r~ \$0-audiotrig;
#X obj 501 129 route reset effect;
#X obj 603 152 s \$0-effectcontrol;
#X obj 1561 835 LineEffect;
#X obj 1405 846 LineEffect;
#X obj 1751 836 LineEffect;
#X obj 1402 943 outlet~;
#X obj 1219 940 outlet~;
#X obj 422 705 r~ \$0-audioin;
#X obj 422 742 *~ 0;
#X obj 422 772 outlet~;
#X msg 329 298 list startstop pause line1 line2 line3;
#X obj 710 277 select 3;
#X obj 55 424 select 1 2;
#X obj 257 600 t b b;
#X obj 240 701 spigot;
#X text 450 677 pass;
#X obj 290 645 r \$0-selection;
#X obj 289 674 == 1;
#X obj 219 389 throw~ \$0-audionotif;
#X obj 1497 266 phasor~ 0.11025;
#X obj 1497 294 *~ 400000;
#X obj 1577 216 t b;
#X msg 1581 240 0;
#X obj 1497 328 snapshot~;
#X obj 1406 286 r \$0-loopend;
#X obj 1469 378 nbx 5 14 -1e+37 1e+37 0 0 empty empty empty 0 -8 0
10 -262144 -1 -1 0 256;
#X obj 1568 567 * 44100;
#X floatatom 1295 683 5 0 0 0 - - -;
#X floatatom 1521 531 5 0 0 0 - - -;
#X obj 644 368 r~ \$0-audioin;
#X obj 687 387 r~ \$0-sampleindex;
#X obj 587 539 s \$0-loopstart;
#X obj 652 568 s \$0-loopend;
#X obj 744 553 s \$0-selection;
#X msg 741 525 0;
#X obj 698 473 throw~ \$0-audionotif;
#X obj 796 452 s~ \$0-loop1;
#X obj 1404 752 r~ \$0-loop1;
#X obj 667 495 select 1 2 3;
#X msg 828 299 reset;
#X obj 843 267 r \$0-loopreset;
#X msg 804 751 enable \$1;
#X obj 706 661 r \$0-selection;
#X msg 797 723 0;
#X msg 751 727 1;
#X obj 637 759 r~ \$0-audiotrig;
#X obj 708 783 r~ \$0-audioin;
#X obj 751 802 r~ \$0-sampleindex;
#X obj 588 960 s \$0-loopstart;
#X obj 653 989 s \$0-loopend;
#X obj 745 974 s \$0-selection;
#X msg 742 946 0;
#X obj 699 894 throw~ \$0-audionotif;
#X obj 668 916 select 1 2 3;
#X msg 877 750 reset;
#X obj 892 718 r \$0-loopreset;
#X obj 750 705 select 4;
#X obj 797 873 s~ \$0-loop2;
#X msg 1145 366 enable \$1;
#X obj 1047 276 r \$0-selection;
#X msg 1138 338 0;
#X msg 1092 342 1;
#X obj 978 374 r~ \$0-audiotrig;
#X obj 1049 398 r~ \$0-audioin;
#X obj 1092 417 r~ \$0-sampleindex;
#X obj 978 572 s \$0-loopstart;
#X obj 1043 601 s \$0-loopend;
#X obj 1135 586 s \$0-selection;
#X msg 1132 558 0;
#X obj 1089 506 throw~ \$0-audionotif;
#X obj 1058 528 select 1 2 3;
#X msg 1222 360 reset;
#X obj 1194 329 r \$0-loopreset;
#X obj 1091 320 select 5;
#X obj 1187 485 s~ \$0-loop3;
#X obj 1564 734 r~ \$0-loop2;
#X obj 1726 729 r~ \$0-loop3;
#X obj 727 425 TriggeredLoop;
#X msg 836 347 overdub \$1;
#X obj 840 322 r \$0-overdub;
#X msg 842 403 looplength \$1;
#X obj 842 375 r \$0-looplength;
#X obj 1378 529 s \$0-looplength;
#X msg 1262 382 overdub \$1;
#X obj 1266 357 r \$0-overdub;
#X msg 1268 438 looplength \$1;
#X obj 1268 410 r \$0-looplength;
#X msg 915 772 overdub \$1;
#X obj 919 747 r \$0-overdub;
#X msg 921 828 looplength \$1;
#X obj 921 800 r \$0-looplength;
#X msg 1444 561 1;
#X obj 1442 593 s \$0-overdub;
#X msg 1698 346 0;
#X obj 1699 368 s \$0-overdub;
#X text 1738 344 first loop is without overdub;
#X obj 1403 497 / 44.1;
#X obj 728 846 TriggeredLoop;
#X obj 1118 458 TriggeredLoop;
#X text 1283 598 next loops are overdub by default (TODO: have option
to change this);
#X connect 0 0 4 1;
#X connect 1 0 5 0;
#X connect 3 0 5 0;
#X connect 4 0 93 0;
#X connect 4 1 37 0;
#X connect 4 1 68 0;
#X connect 5 0 88 0;
#X connect 5 1 2 0;
#X connect 6 0 12 0;
#X connect 7 0 48 0;
#X connect 8 0 47 0;
#X connect 9 0 47 0;
#X connect 10 0 9 0;
#X connect 10 0 17 0;
#X connect 11 0 152 3;
#X connect 12 0 101 0;
#X connect 13 0 14 0;
#X connect 14 0 16 0;
#X connect 15 0 80 0;
#X connect 17 0 6 0;
#X connect 17 0 14 1;
#X connect 21 0 19 0;
#X connect 22 0 21 0;
#X connect 23 0 96 0;
#X connect 24 0 86 0;
#X connect 25 0 11 0;
#X connect 26 0 11 0;
#X connect 27 0 28 0;
#X connect 27 0 38 0;
#X connect 28 0 29 0;
#X connect 28 1 36 0;
#X connect 29 0 0 0;
#X connect 30 0 0 0;
#X connect 31 0 1 0;
#X connect 31 0 83 1;
#X connect 32 0 87 0;
#X connect 33 0 31 0;
#X connect 34 0 31 0;
#X connect 35 0 29 0;
#X connect 35 0 85 0;
#X connect 36 0 30 0;
#X connect 39 0 40 0;
#X connect 41 0 3 0;
#X connect 41 0 43 0;
#X connect 42 0 81 0;
#X connect 43 0 5 0;
#X connect 44 0 4 3;
#X connect 45 0 44 0;
#X connect 45 0 46 0;
#X connect 46 0 4 3;
#X connect 47 0 7 1;
#X connect 48 1 49 0;
#X connect 48 1 171 0;
#X connect 49 0 8 0;
#X connect 49 0 166 0;
#X connect 49 1 6 0;
#X connect 49 1 14 1;
#X connect 49 1 103 0;
#X connect 50 0 51 0;
#X connect 51 0 10 0;
#X connect 51 0 168 0;
#X connect 53 0 58 0;
#X connect 54 0 59 0;
#X connect 57 0 75 0;
#X connect 60 0 5 1;
#X connect 61 0 4 0;
#X connect 62 0 78 1;
#X connect 63 0 62 0;
#X connect 64 0 66 0;
#X connect 65 0 67 0;
#X connect 66 0 77 1;
#X connect 67 0 79 1;
#X connect 68 0 69 0;
#X connect 70 0 71 0;
#X connect 70 0 73 0;
#X connect 71 0 72 0;
#X connect 74 0 152 0;
#X connect 75 0 70 0;
#X connect 75 1 76 0;
#X connect 77 0 15 0;
#X connect 78 0 15 0;
#X connect 79 0 15 0;
#X connect 82 0 83 0;
#X connect 83 0 84 0;
#X connect 85 0 4 2;
#X connect 86 0 26 0;
#X connect 86 1 25 0;
#X connect 87 0 33 0;
#X connect 87 1 33 0;
#X connect 87 2 34 0;
#X connect 88 0 39 0;
#X connect 88 1 89 0;
#X connect 89 0 52 0;
#X connect 91 0 92 0;
#X connect 92 0 89 1;
#X connect 94 0 95 0;
#X connect 95 0 98 0;
#X connect 96 0 97 0;
#X connect 97 0 94 1;
#X connect 98 0 100 0;
#X connect 98 0 7 0;
#X connect 99 0 98 0;
#X connect 101 0 13 0;
#X connect 102 0 21 1;
#X connect 104 0 152 1;
#X connect 105 0 152 2;
#X connect 109 0 108 0;
#X connect 112 0 78 0;
#X connect 113 0 106 0;
#X connect 113 1 107 0;
#X connect 113 2 109 0;
#X connect 114 0 152 3;
#X connect 115 0 114 0;
#X connect 116 0 172 3;
#X connect 117 0 131 0;
#X connect 118 0 116 0;
#X connect 119 0 116 0;
#X connect 120 0 172 0;
#X connect 121 0 172 1;
#X connect 122 0 172 2;
#X connect 126 0 125 0;
#X connect 128 0 123 0;
#X connect 128 1 124 0;
#X connect 128 2 126 0;
#X connect 129 0 172 3;
#X connect 130 0 129 0;
#X connect 131 0 119 0;
#X connect 131 1 118 0;
#X connect 133 0 173 3;
#X connect 134 0 148 0;
#X connect 135 0 133 0;
#X connect 136 0 133 0;
#X connect 137 0 173 0;
#X connect 138 0 173 1;
#X connect 139 0 173 2;
#X connect 143 0 142 0;
#X connect 145 0 140 0;
#X connect 145 1 141 0;
#X connect 145 2 143 0;
#X connect 146 0 173 3;
#X connect 147 0 146 0;
#X connect 148 0 136 0;
#X connect 148 1 135 0;
#X connect 150 0 77 0;
#X connect 151 0 79 0;
#X connect 152 0 113 0;
#X connect 152 1 110 0;
#X connect 152 2 111 0;
#X connect 153 0 152 3;
#X connect 154 0 153 0;
#X connect 155 0 152 3;
#X connect 156 0 155 0;
#X connect 158 0 173 3;
#X connect 159 0 158 0;
#X connect 160 0 173 3;
#X connect 161 0 160 0;
#X connect 162 0 172 3;
#X connect 163 0 162 0;
#X connect 164 0 172 3;
#X connect 165 0 164 0;
#X connect 166 0 167 0;
#X connect 168 0 169 0;
#X connect 171 0 157 0;
#X connect 172 0 128 0;
#X connect 172 1 127 0;
#X connect 172 2 132 0;
#X connect 173 0 145 0;
#X connect 173 1 144 0;
#X connect 173 2 149 0;
