#N canvas 1186 342 1555 1050 10;
#X text -32 46 Multiloop UI;
#X obj 119 153 adc~ 1 2;
#X obj 239 156 adc~ 3;
#X obj 138 308 MultilineLoop;
#X obj 137 193 +~;
#X obj 179 196 == 0;
#X obj 166 232 +~ 1;
#X obj 230 229 *~ 0;
#X obj 255 199 == 1;
#X obj 175 267 +~;
#X obj 218 85 vradio 15 1 0 2 empty empty empty 0 -8 0 10 -262144 -1
-1 0;
#X text 239 85 line 2 (common trigger and input);
#X text 240 99 line 3;
#X obj -11 284 env~;
#X obj -12 313 - 99;
#X obj 27 288 env~;
#X obj 27 314 - 99;
#X obj -55 356 s \$0-audiolvl;
#X obj 34 355 s \$0-triglvl;
#X obj 665 307 vu 15 120 \$0-audiolvl Audio_Level -1 -8 0 10 -66577
-1 1 0;
#X obj 748 310 vu 15 120 \$0-triglvl Trigger_Level -1 -8 0 10 -66577
-1 1 0;
#X obj -38 529 route selection;
#X floatatom -37 575 5 0 0 0 - - -;
#X msg 212 266 reset;
#X obj 341 134 cnv 15 200 60 empty empty empty 20 12 0 14 -233017 -66577
0;
#X obj 351 142 vradio 15 1 0 3 empty empty Loop_1_effect 0 -8 0 10
-262144 -1 -1 0;
#X obj 414 143 hsl 128 15 0 800 0 0 empty empty empty -2 -8 0 10 -262144
-1 -1 0 1;
#X floatatom 394 170 5 0 0 0 - - -;
#X msg 352 201 effect 1 \$1;
#X msg 432 202 effect 1 control1 \$1;
#X obj 569 132 cnv 15 200 60 empty empty empty 20 12 0 14 -233017 -66577
0;
#X obj 579 140 vradio 15 1 0 3 empty empty Loop_2_effect 0 -8 0 10
-262144 -1 -1 0;
#X obj 625 141 hsl 128 15 0 800 0 0 empty empty empty -2 -8 0 10 -262144
-1 -1 0 1;
#X floatatom 622 168 5 0 0 0 - - -;
#X msg 580 199 effect 2 \$1;
#X msg 660 200 effect 2 control1 \$1;
#X obj 796 130 cnv 15 200 60 empty empty empty 20 12 0 14 -233017 -66577
0;
#X obj 806 138 vradio 15 1 0 3 empty empty Loop_3_effect 0 -8 0 10
-262144 -1 -1 0;
#X obj 852 139 hsl 128 15 0 800 0 0 empty empty empty -2 -8 0 10 -262144
-1 -1 0 1;
#X floatatom 849 166 5 0 0 0 - - -;
#X msg 805 200 effect 3 \$1;
#X msg 887 198 effect 3 control1 \$1;
#X text 162 591 pass;
#X text 325 578 notification;
#X obj 114 675 env~;
#X obj 114 705 - 99;
#X obj 113 731 s \$0-stdoutlvl;
#X obj 305 683 env~;
#X obj 305 713 - 99;
#X obj 922 582 vu 15 120 \$0-stdoutlvl stereo0_(USB) -1 -8 0 10 -66577
-1 1 0;
#X obj 1012 583 vu 15 120 \$0-channel3lvl stereo1_(output) -1 -8 0
10 -66577 -1 1 0;
#X obj 304 738 s \$0-channel3lvl;
#X obj 287 504 *~;
#X obj 308 370 vsl 15 128 0.5 10 0 0 empty empty empty 0 -9 0 10 -262144
-1 -1 668 1;
#X msg 305 340 1;
#X obj 307 312 lbang;
#X obj 182 691 dac~ 1 2;
#X obj 347 686 dac~ 3 4;
#X msg 127 539 set \$1-stereo\$2;
#X obj 127 510 pack 0 0;
#X obj 126 482 f \$0;
#X obj 142 456 t b f;
#X obj 148 417 vradio 15 1 0 2 empty empty Channel_out 0 -8 0 10 -262144
-1 -1 0;
#X obj 99 573 throw~ \$0-stereo0;
#X msg 348 519 set \$1-stereo\$2;
#X obj 348 490 pack 0 0;
#X obj 347 462 f \$0;
#X obj 363 436 t b f;
#X obj 320 553 throw~ \$0-stereo0;
#X obj 361 399 vradio 15 1 0 2 empty empty Channel_out 0 -8 0 10 -262144
-1 -1 0;
#X msg 482 518 set \$1-stereo\$2;
#X obj 482 489 pack 0 0;
#X obj 481 461 f \$0;
#X obj 497 435 t b f;
#X obj 454 552 throw~ \$0-stereo0;
#X obj 495 398 vradio 15 1 0 2 empty empty Channel_out 0 -8 0 10 -262144
-1 -1 0;
#X text 462 577 loop;
#X obj 182 650 catch~ \$0-stereo0;
#X obj 343 646 catch~ \$0-stereo1;
#X obj 632 494 osc~ 440;
#X obj 631 522 *~ 0.2;
#X msg 711 575 set \$1-stereo\$2;
#X obj 711 546 pack 0 0;
#X obj 710 518 f \$0;
#X obj 726 492 t b f;
#X obj 683 609 throw~ \$0-stereo0;
#X obj 724 455 vradio 15 1 0 2 empty empty empty 0 -8 0 10 -262144
-1 -1 0;
#X obj 646 571 *~ 0;
#X obj 680 535 tgl 15 0 empty empty empty 17 7 0 10 -262144 -1 -1 0
1;
#X text 758 475 test signal out;
#X connect 1 0 4 0;
#X connect 1 1 4 1;
#X connect 1 1 6 0;
#X connect 2 0 7 0;
#X connect 2 0 15 0;
#X connect 3 0 21 0;
#X connect 3 1 63 0;
#X connect 3 2 52 0;
#X connect 3 3 74 0;
#X connect 4 0 3 0;
#X connect 4 0 13 0;
#X connect 5 0 6 1;
#X connect 6 0 9 0;
#X connect 7 0 9 0;
#X connect 8 0 7 1;
#X connect 9 0 3 1;
#X connect 10 0 5 0;
#X connect 10 0 8 0;
#X connect 13 0 14 0;
#X connect 14 0 17 0;
#X connect 15 0 16 0;
#X connect 16 0 18 0;
#X connect 21 0 22 0;
#X connect 23 0 3 2;
#X connect 25 0 28 0;
#X connect 26 0 27 0;
#X connect 27 0 29 0;
#X connect 28 0 3 2;
#X connect 29 0 3 2;
#X connect 31 0 34 0;
#X connect 32 0 33 0;
#X connect 33 0 35 0;
#X connect 34 0 3 2;
#X connect 35 0 3 2;
#X connect 37 0 40 0;
#X connect 38 0 39 0;
#X connect 39 0 41 0;
#X connect 40 0 3 2;
#X connect 41 0 3 2;
#X connect 44 0 45 0;
#X connect 45 0 46 0;
#X connect 47 0 48 0;
#X connect 48 0 51 0;
#X connect 52 0 68 0;
#X connect 53 0 52 1;
#X connect 54 0 53 0;
#X connect 55 0 54 0;
#X connect 58 0 63 0;
#X connect 59 0 58 0;
#X connect 60 0 59 0;
#X connect 61 0 60 0;
#X connect 61 1 59 1;
#X connect 62 0 61 0;
#X connect 64 0 68 0;
#X connect 65 0 64 0;
#X connect 66 0 65 0;
#X connect 67 0 66 0;
#X connect 67 1 65 1;
#X connect 69 0 67 0;
#X connect 70 0 74 0;
#X connect 71 0 70 0;
#X connect 72 0 71 0;
#X connect 73 0 72 0;
#X connect 73 1 71 1;
#X connect 75 0 73 0;
#X connect 77 0 44 0;
#X connect 77 0 56 0;
#X connect 77 0 56 1;
#X connect 78 0 47 0;
#X connect 78 0 57 0;
#X connect 78 0 57 1;
#X connect 79 0 80 0;
#X connect 80 0 87 0;
#X connect 81 0 85 0;
#X connect 82 0 81 0;
#X connect 83 0 82 0;
#X connect 84 0 83 0;
#X connect 84 1 82 1;
#X connect 86 0 84 0;
#X connect 87 0 85 0;
#X connect 88 0 87 1;
