#N canvas 968 140 1568 1125 10;
#X obj 455 129 table \$0-option1;
#X obj 455 152 table \$0-option2;
#X obj 455 176 table \$0-option3;
#X obj 577 152 table \$0-selection;
#X obj 163 109 i;
#X obj 198 109 + 1;
#X msg 163 70 1;
#X obj 219 372 print flite-synth-load;
#X msg -15 309 synth;
#X obj 200 250 f \$0;
#X obj 227 273 pack 0 0;
#X obj 226 225 t b f;
#X msg 216 306 set \$1-option\$2;
#X obj 776 967 tabplay~ \$0-option1;
#X msg 774 931 bang;
#X msg 825 932 stop;
#X msg 774 909 start;
#X text 387 55 load menu option symbols into speech synthesizer;
#X obj 503 575 spigot;
#X obj 562 504 > 80;
#X obj 504 645 / 2;
#X obj 502 755 i;
#X msg 637 930 set \$1-option\$2;
#X obj 632 833 t b f;
#X obj 625 887 pack 0 0;
#X obj 621 858 f \$0;
#X obj 647 951 t b a;
#X text 429 707 debounce;
#X obj 25 830 vu 15 120 \$0-triggervol empty -1 -8 0 10 -66577 -1 1
0;
#X msg 290 958 synth;
#X obj 163 983 tabplay~ \$0-selection;
#X obj 502 852 i;
#X obj 503 820 spigot;
#X msg 436 784 0;
#X msg 444 819 1;
#X msg 550 797 1;
#X obj 551 768 lbang;
#X floatatom 497 887 5 0 0 0 - - -;
#X obj 719 223 lbang;
#X msg 719 259 list option1 option2 option3;
#X obj 726 321 s \$0-menuitems;
#X obj 579 643 i;
#X floatatom 599 600 5 0 0 0 - - -;
#X floatatom 631 617 5 0 0 0 - - -;
#X floatatom 674 621 5 0 0 0 - - -;
#X msg 602 570 60;
#X msg 737 568 2;
#X obj 647 518 lbang;
#X obj 504 621 - 60;
#X obj 502 785 + 1;
#X obj 314 1025 i;
#X obj 314 1053 outlet;
#X obj 218 345 moocow/flite option1;
#X obj 369 994 moocow/flite \$0-selection;
#X obj 81 265 cyclone/zl nth;
#X obj 159 225 t b f;
#X obj -7 202 r \$0-menuitems;
#X msg 78 307 text \$1;
#X obj 83 285 symbol;
#X obj 760 143 inlet;
#X obj 815 304 cyclone/zl len;
#X obj 719 289 list;
#X obj 815 335 s \$0-numitems;
#X obj 75 115 r \$0-numitems;
#X obj 634 560 r \$0-numitems;
#X obj 770 201 s \$0-volcutoff;
#X obj 620 488 r \$0-volcutoff;
#X obj 547 549 &&;
#X obj 478 502 t f f;
#X obj 569 528 t b f;
#X obj 521 520 > 0;
#X obj 518 479 r \$0-pitchmin;
#X obj 875 205 s \$0-pitchsize;
#X obj 732 608 r \$0-pitchsize;
#X obj 965 231 s \$0-pitchbase;
#X obj 789 572 r \$0-pitchbase;
#X obj 771 735 nbx 5 14 -1e+37 1e+37 0 0 empty \$0-pitchselection empty
0 -8 0 10 -262144 -1 -1 0.496891 256;
#X obj 382 643 s \$0-pitchselection;
#X obj -22 -9 inlet;
#X obj -24 87 tgl 15 0 empty empty empty 17 7 0 10 -262144 -1 -1 1
1;
#X obj 27 92 select 1;
#X obj 0 224 t b;
#X obj -38 132 s \$0-enable;
#X obj 483 419 *~;
#X obj 521 399 r \$0-enable;
#X obj 508 704 clip 0 2;
#X obj 481 457 sigmund~ -hop 4096 pitch env;
#X obj 615 314 print optionlist;
#X obj 606 183 inlet;
#X obj 760 170 route volcutoff pitchsize pitchbase;
#X obj 370 940 symbol;
#X obj 368 914 cyclone/zl nth;
#X obj 401 889 t b f;
#X obj 343 875 r \$0-menuitems;
#X msg 371 959 text selected-\$1;
#X obj 376 802 delay 300;
#X obj 299 785 t b b b;
#X obj 296 700 r \$0-enable;
#X msg 300 729 enable \$1;
#X obj 299 758 AudioTrigger;
#X obj 355 149 table \$0-name;
#X obj 151 506 moocow/flite \$0-name;
#X msg 169 478 text \$1;
#X obj 172 449 symbol \$1;
#X obj 129 408 lbang;
#X obj 125 434 t b b;
#X msg 124 480 synth;
#X obj 46 543 r \$0-enable;
#X obj 46 566 select 1;
#X obj 45 597 tabplay~ \$0-name;
#X obj -22 18 select 1;
#X msg -21 70 1;
#X msg 48 49 0;
#X obj -22 45 delay 400;
#X obj 455 201 table \$0-option4;
#X obj 454 223 table \$0-option5;
#X obj 103 166 < 3;
#X obj 618 659 - 1;
#X obj -109 66 inlet~;
#X obj -138 236 s~ \$0-audioin;
#X obj -214 71 adc~;
#X obj -214 100 *~ 1;
#X obj -112 95 *~ 0;
#X obj -162 84 env~;
#X obj -165 109 > 0;
#X obj -167 138 select 1;
#X msg -171 163 0;
#X msg -138 168 1;
#X obj -134 215 +~;
#X obj 373 729 r~ \$0-audioin;
#X obj 163 1047 outlet~;
#X obj 161 139 t f b f f;
#X obj 105 193 select 1;
#X obj 487 347 r~ \$0-audioin;
#X connect 4 0 5 0;
#X connect 4 0 131 0;
#X connect 5 0 4 1;
#X connect 6 0 4 0;
#X connect 8 0 52 0;
#X connect 9 0 10 0;
#X connect 10 0 12 0;
#X connect 11 0 9 0;
#X connect 11 1 10 1;
#X connect 12 0 52 0;
#X connect 13 0 130 0;
#X connect 14 0 13 0;
#X connect 15 0 13 0;
#X connect 16 0 14 0;
#X connect 18 0 48 0;
#X connect 19 0 69 0;
#X connect 20 0 77 0;
#X connect 20 0 85 0;
#X connect 21 0 49 0;
#X connect 22 0 26 0;
#X connect 23 0 25 0;
#X connect 23 1 24 1;
#X connect 24 0 22 0;
#X connect 25 0 24 0;
#X connect 26 0 16 0;
#X connect 26 1 13 0;
#X connect 29 0 53 0;
#X connect 30 0 130 0;
#X connect 31 0 23 0;
#X connect 31 0 37 0;
#X connect 31 0 50 1;
#X connect 31 0 92 0;
#X connect 32 0 31 0;
#X connect 33 0 32 1;
#X connect 34 0 32 1;
#X connect 35 0 32 1;
#X connect 36 0 35 0;
#X connect 38 0 39 0;
#X connect 39 0 61 0;
#X connect 41 0 48 1;
#X connect 42 0 41 0;
#X connect 43 0 117 0;
#X connect 44 0 20 1;
#X connect 45 0 42 0;
#X connect 46 0 44 0;
#X connect 47 0 45 0;
#X connect 47 0 46 0;
#X connect 48 0 20 0;
#X connect 49 0 32 0;
#X connect 50 0 51 0;
#X connect 52 0 7 0;
#X connect 54 0 58 0;
#X connect 55 0 54 0;
#X connect 55 1 54 1;
#X connect 56 0 54 0;
#X connect 56 0 81 0;
#X connect 57 0 52 0;
#X connect 58 0 57 0;
#X connect 59 0 89 0;
#X connect 60 0 62 0;
#X connect 61 0 40 0;
#X connect 61 0 60 0;
#X connect 61 0 87 0;
#X connect 63 0 116 1;
#X connect 64 0 43 0;
#X connect 66 0 19 1;
#X connect 67 0 18 1;
#X connect 68 0 18 0;
#X connect 68 1 70 0;
#X connect 69 0 67 0;
#X connect 69 1 67 1;
#X connect 70 0 67 0;
#X connect 71 0 70 1;
#X connect 73 0 44 0;
#X connect 75 0 42 0;
#X connect 78 0 110 0;
#X connect 79 0 80 0;
#X connect 79 0 82 0;
#X connect 80 0 6 0;
#X connect 81 0 6 0;
#X connect 83 0 86 0;
#X connect 84 0 83 1;
#X connect 85 0 21 0;
#X connect 86 0 68 0;
#X connect 86 1 19 0;
#X connect 88 0 61 0;
#X connect 89 0 65 0;
#X connect 89 1 72 0;
#X connect 89 2 74 0;
#X connect 89 3 99 0;
#X connect 90 0 94 0;
#X connect 91 0 90 0;
#X connect 92 0 91 0;
#X connect 92 1 91 1;
#X connect 93 0 91 0;
#X connect 94 0 53 0;
#X connect 95 0 34 0;
#X connect 96 0 30 0;
#X connect 96 0 50 0;
#X connect 96 1 29 0;
#X connect 96 2 95 0;
#X connect 96 2 33 0;
#X connect 97 0 98 0;
#X connect 98 0 99 0;
#X connect 99 0 96 0;
#X connect 102 0 101 0;
#X connect 103 0 102 0;
#X connect 104 0 105 0;
#X connect 105 0 106 0;
#X connect 105 1 103 0;
#X connect 106 0 101 0;
#X connect 107 0 108 0;
#X connect 108 0 109 0;
#X connect 109 0 130 0;
#X connect 110 0 113 0;
#X connect 110 1 112 0;
#X connect 111 0 79 0;
#X connect 112 0 79 0;
#X connect 113 0 111 0;
#X connect 116 0 132 0;
#X connect 117 0 85 2;
#X connect 118 0 122 0;
#X connect 118 0 123 0;
#X connect 120 0 121 0;
#X connect 120 1 121 0;
#X connect 121 0 128 0;
#X connect 122 0 128 0;
#X connect 123 0 124 0;
#X connect 124 0 125 0;
#X connect 125 0 126 0;
#X connect 125 0 127 0;
#X connect 126 0 121 1;
#X connect 127 0 122 1;
#X connect 128 0 119 0;
#X connect 129 0 99 1;
#X connect 131 0 116 0;
#X connect 131 1 8 0;
#X connect 131 2 55 0;
#X connect 131 3 11 0;
#X connect 132 0 4 0;
#X connect 133 0 83 0;
