#N canvas 844 176 1395 937 10;
#X obj 227 97 inlet~;
#X text 204 64 trigger;
#X obj 172 227 AudioTrigger;
#X obj 171 279 spigot;
#X obj 644 108 inlet;
#X obj 168 361 spigot;
#X obj 177 518 i;
#X msg 687 107 enable \$1;
#X obj 687 79 tgl 15 0 empty empty empty 17 7 0 10 -262144 -1 -1 0
1;
#X msg 172 207 enable \$1;
#X obj 275 263 lbang;
#X obj 169 255 t b;
#X obj 398 274 AudioTrigger;
#X msg 399 248 enable \$1;
#X msg 470 248 thresh 150 500;
#X obj 469 226 lbang;
#X obj 392 321 spigot;
#X obj 559 798 bsaylor/aenv~;
#X obj 510 707 t b;
#X msg 521 729 1;
#X obj 557 724 delay 10;
#X msg 556 748 0;
#X obj 461 802 osc~ 220;
#X obj 520 879 *~;
#X obj 422 728 * 220;
#X obj 432 761 + 440;
#X obj 350 357 t b;
#X obj 56 300 lbang;
#X msg 58 325 0;
#X obj 519 919 outlet~;
#X obj 362 101 inlet~;
#X text 365 68 audio line in;
#X obj 362 126 s~ \$0-audioin;
#X obj 501 99 inlet~;
#X text 501 70 sampling line;
#X obj 501 126 s~ \$0-sample;
#X text 588 848 beeps for notification;
#X msg 171 673 stop;
#X obj -152 663 r~ \$0-audioin;
#X msg -122 599 1 50;
#X msg -50 630 0 50;
#X obj -24 681 line~;
#X obj -64 730 *~;
#X msg -7 648 0;
#X obj 20 577 lbang;
#X text -121 546 envelope loop to prevent clicks;
#X obj 693 258 s \$0-overdub;
#X obj 787 175 s \$0-looplength;
#X obj -87 64 table \$0-loop-line 400000;
#X msg 61 627 const 0;
#X obj 23 666 s \$0-loop-line;
#X obj 117 886 tabwrite~ \$0-loop-line;
#X obj 114 560 select 0 1 2;
#X obj 263 734 outlet;
#X obj 263 622 r~ \$0-sample;
#X obj 269 656 snapshot~;
#X obj 264 690 s \$0-offset;
#X obj 847 426 r~ \$0-sample;
#X obj 885 471 <~ 0;
#X obj 943 438 r \$0-offset;
#X obj 871 504 +~ 0;
#X obj 934 476 r \$0-offset;
#X obj 892 534 *~;
#X obj 788 477 >~ 0;
#X obj 792 400 r \$0-offset;
#X obj 784 511 -~ 0;
#X obj 801 539 *~;
#X obj 855 577 +~;
#X obj 861 632 tabread4~ \$0-loop-line;
#X obj 863 674 outlet~;
#X obj 664 150 route enable overdub looplength reset;
#X msg 892 178 const 0;
#X obj 888 215 s \$0-loop-line;
#X obj 767 201 lbang;
#X obj 303 501 spigot;
#X obj 340 473 r \$0-overdub;
#X obj 303 523 delay;
#X obj 348 502 r \$0-looplength;
#X msg 306 555 2;
#X obj 198 303 == 4;
#X obj 219 382 mod 3;
#X obj 194 407 + 1;
#X obj 252 291 < 2;
#X obj 204 338 ||;
#X obj 223 315 t b f;
#X obj 393 383 mod 2;
#X obj 366 409 + 1;
#X obj 340 428 + 3;
#X obj 349 382 i 0;
#X obj 171 382 i 0;
#X obj 432 297 >= 2;
#X floatatom 112 513 5 0 0 0 - - -;
#X floatatom 354 529 5 0 0 0 - - -;
#X msg 733 227 0;
#X msg 114 636 start 0;
#X msg 389 566 1;
#X obj 236 518 select 2;
#X msg 255 540 stop;
#X obj 170 640 delay 50;
#X connect 0 0 2 1;
#X connect 0 0 12 1;
#X connect 2 0 11 0;
#X connect 3 0 5 0;
#X connect 4 0 70 0;
#X connect 5 0 89 0;
#X connect 6 0 24 0;
#X connect 6 0 18 0;
#X connect 6 0 52 0;
#X connect 6 0 53 0;
#X connect 6 0 79 0;
#X connect 6 0 82 0;
#X connect 6 0 90 0;
#X connect 6 0 91 0;
#X connect 6 0 96 0;
#X connect 7 0 70 0;
#X connect 8 0 7 0;
#X connect 9 0 2 0;
#X connect 11 0 3 0;
#X connect 12 0 16 0;
#X connect 13 0 12 0;
#X connect 14 0 12 0;
#X connect 15 0 14 0;
#X connect 16 0 26 0;
#X connect 17 0 23 1;
#X connect 18 0 19 0;
#X connect 18 0 20 0;
#X connect 19 0 17 0;
#X connect 20 0 21 0;
#X connect 21 0 17 0;
#X connect 22 0 23 0;
#X connect 23 0 29 0;
#X connect 24 0 25 0;
#X connect 25 0 22 0;
#X connect 26 0 88 0;
#X connect 27 0 28 0;
#X connect 28 0 6 0;
#X connect 30 0 32 0;
#X connect 33 0 35 0;
#X connect 37 0 51 0;
#X connect 38 0 42 0;
#X connect 39 0 41 0;
#X connect 40 0 41 0;
#X connect 41 0 42 1;
#X connect 42 0 51 0;
#X connect 43 0 41 0;
#X connect 44 0 43 0;
#X connect 49 0 50 0;
#X connect 52 0 49 0;
#X connect 52 1 94 0;
#X connect 52 1 55 0;
#X connect 52 1 39 0;
#X connect 52 1 74 0;
#X connect 52 2 40 0;
#X connect 52 2 98 0;
#X connect 54 0 55 0;
#X connect 55 0 56 0;
#X connect 57 0 58 0;
#X connect 57 0 60 0;
#X connect 57 0 63 0;
#X connect 57 0 65 0;
#X connect 58 0 62 1;
#X connect 59 0 58 1;
#X connect 60 0 62 0;
#X connect 61 0 60 1;
#X connect 62 0 67 1;
#X connect 63 0 66 1;
#X connect 64 0 63 1;
#X connect 64 0 65 1;
#X connect 65 0 66 0;
#X connect 66 0 67 0;
#X connect 67 0 68 0;
#X connect 68 0 69 0;
#X connect 70 0 3 1;
#X connect 70 0 9 0;
#X connect 70 0 13 0;
#X connect 70 1 46 0;
#X connect 70 2 47 0;
#X connect 70 3 71 0;
#X connect 71 0 72 0;
#X connect 73 0 93 0;
#X connect 74 0 76 0;
#X connect 75 0 74 1;
#X connect 76 0 78 0;
#X connect 76 0 95 0;
#X connect 77 0 76 1;
#X connect 77 0 92 0;
#X connect 78 0 6 0;
#X connect 79 0 83 0;
#X connect 80 0 89 1;
#X connect 81 0 80 0;
#X connect 82 0 84 0;
#X connect 83 0 5 1;
#X connect 84 0 83 0;
#X connect 84 1 83 1;
#X connect 85 0 88 1;
#X connect 86 0 85 0;
#X connect 87 0 6 0;
#X connect 88 0 86 0;
#X connect 88 0 87 0;
#X connect 89 0 81 0;
#X connect 89 0 6 0;
#X connect 90 0 16 1;
#X connect 93 0 46 0;
#X connect 94 0 51 0;
#X connect 95 0 6 0;
#X connect 96 0 97 0;
#X connect 97 0 76 0;
#X connect 98 0 37 0;
